<?xml version="1.0" encoding="utf-8"?>
<svg width="27.135" height="26.959" viewBox="0 0 27.135 26.959" fill="none" xmlns="http://www.w3.org/2000/svg">
  <defs>
    <linearGradient id="gradient_1" gradientUnits="userSpaceOnUse" x1="4.065" y1="4.039" x2="24.838" y2="24.675">
      <stop offset="0" stop-color="#2AA4F4" />
      <stop offset="1" stop-color="#007AD9" />
    </linearGradient>
  </defs>
  <g transform="translate(-0 0)">
    <path d="M13.5672 0C6.07417 0 0 6.03357 0 13.478C0 20.9217 6.07417 26.9564 13.5672 26.9564C21.0604 26.9564 27.1345 20.9217 27.1345 13.478C27.1345 6.03357 21.0604 0 13.5672 0C13.5672 0 13.5672 0 13.5672 0Z" fill="url(#gradient_1)" fill-rule="evenodd" />
    <path d="M7.22276 11.5123L10.7337 11.5123L11.2853 7.97042L7.22276 7.97042C7.22276 7.97042 7.22276 6.0307 7.22276 6.0307C7.22276 4.56552 7.70686 3.26072 9.09276 3.26072C9.09276 3.26072 11.3199 3.26072 11.3199 3.26072C11.3199 3.26072 11.3199 0.16843 11.3199 0.16843C10.9284 0.110431 10.101 0 8.53725 0C5.27152 0 3.35722 1.71416 3.35722 5.61018C3.35722 5.61018 3.35722 7.97168 3.35722 7.97168L0 7.97168L0 11.5128L3.35638 11.5128C3.35638 11.5128 3.35638 21.242 3.35638 21.242C4.02135 21.3437 4.69512 21.4225 5.3861 21.4225C6.01102 21.4225 6.62075 21.3594 7.22276 21.272C7.22276 21.272 7.22276 11.5123 7.22276 11.5123L7.22276 11.5123Z" fill="#FFFFFF" fill-rule="evenodd" transform="translate(8.181 5.536)" />
  </g>
</svg>