<?xml version="1.0" encoding="utf-8"?>
<svg width="403" height="150.311" viewBox="0 0 403 150.311" fill="none" xmlns="http://www.w3.org/2000/svg">
  <defs>
    <clipPath id="clip_path_1">
      <rect width="197.47" height="113.673" />
    </clipPath>
    <clipPath id="clip_path_2">
      <rect width="80.6" height="113.673" />
    </clipPath>
  </defs>
  <g transform="translate(-0 0)">
    <path d="M24.4385 24.1455L24.4385 96.875L4.6875 96.875L4.6875 24.1455L24.4385 24.1455ZM58.7033 96.875L37.3898 96.875L61.3888 24.1455L88.3908 24.1455L112.39 96.875L91.0763 96.875L86.9015 82.959L62.8781 82.959L58.7033 96.875ZM67.3703 68.1885L82.4094 68.1885L75.1828 44.165L74.5969 44.165L67.3703 68.1885ZM134.738 24.1455L149.631 75.415L150.217 75.415L165.134 24.1455L187.424 24.1455L163.425 96.875L136.423 96.875L112.424 24.1455L134.738 24.1455Z" fill="#1A1A1A" clip-path="url(#clip_path_1)" transform="translate(50.375 17.027)" />
    <path d="M75.1465 60.5225Q75.1465 72.6562 70.4102 80.9814Q65.6982 89.3066 57.666 93.6035Q49.6338 97.876 39.7705 97.876Q29.834 97.876 21.8262 93.5547Q13.8184 89.2334 9.10645 80.9082Q4.39453 72.583 4.39453 60.5225Q4.39453 48.3643 9.10645 40.0391Q13.8184 31.7139 21.8262 27.4414Q29.834 23.1445 39.7705 23.1445Q49.6338 23.1445 57.666 27.4414Q65.6982 31.7139 70.4102 40.0391Q75.1465 48.3643 75.1465 60.5225ZM54.834 60.5225Q54.834 50.708 50.9766 45.5322Q47.1191 40.332 39.7705 40.332Q32.4219 40.332 28.5645 45.5322Q24.707 50.708 24.707 60.5225Q24.707 70.3125 28.5645 75.5127Q32.4219 80.6885 39.7705 80.6885Q47.1191 80.6885 50.9766 75.5127Q54.834 70.3125 54.834 60.5225Z" fill="#2563EB" clip-path="url(#clip_path_2)" transform="translate(224.31 17.027)" />
    <path d="M0 5.63666C0 2.52362 2.70645 0 6.04501 0C9.38358 0 12.09 2.52362 12.09 5.63666C12.09 8.74969 9.38358 11.2733 6.04501 11.2733C2.70645 11.2733 0 8.74969 0 5.63666Z" fill="#2563EB" fill-rule="evenodd" transform="translate(247.482 118.37)" />
  </g>
</svg>